<svg width="222" height="32" viewBox="0 0 222 32" fill="none" xmlns="http://www.w3.org/2000/svg">
<path d="M31 7.35898L27.4779 7.29676L25.692 4.40939L24.8083 7.76347L21 8.41685L24.4599 9.87921L24.771 10.0099L24.0367 13.1835L26.1898 11.2731L29.687 13.1835L28.2744 9.3316L31 7.35898Z" fill="#E43A12"/>
<path d="M4.19731 5.03806L6.60556 13.3426L1 19.6955L9.67831 19.3633L13.8306 28L15.2008 18.8651V18.0346L23.2977 17.4948L17.1939 13.7162L19.1869 4L10.8824 10.1453L4.19731 5.03806Z" fill="#E43A12"/>
<path d="M8.06548 29.625L6.79762 27.4881L7.88094 25.3452L5.52976 26.0536L3.74404 24L4.14284 26.625L4.17857 26.8571L2 27.5952L3.94046 28.1905L4.08927 31L5.87499 28.7321L8.06548 29.625Z" fill="#E43A12"/>
<path d="M21.7911 22.3185L22.387 24.3733L21 25.9452L23.1473 25.863L24.1747 28L24.4213 25.6884V25.4829L26.4247 25.339L24.9144 24.4144L25.4075 22L23.3528 23.5308L21.7911 22.3185Z" fill="#E43A12"/>
<path d="M40.8594 10.5547C40.8333 10.5286 40.8073 10.5026 40.7812 10.4766C40.7682 10.4505 40.7487 10.4245 40.7227 10.3984C40.5664 10.2422 40.4883 10.0794 40.4883 9.91016C40.5013 9.72786 40.5534 9.57161 40.6445 9.44141C40.7487 9.29818 40.8789 9.19401 41.0352 9.12891C41.2044 9.05078 41.3737 9.04427 41.543 9.10938C41.7513 9.08333 41.9466 9.13542 42.1289 9.26562C42.3242 9.38281 42.4219 9.57812 42.4219 9.85156C43.0859 10.6458 43.7109 11.4271 44.2969 12.1953C44.8828 12.9635 45.4167 13.7773 45.8984 14.6367C46.1198 15.0273 46.3216 15.431 46.5039 15.8477C46.6992 16.2513 46.8815 16.6615 47.0508 17.0781C47.0508 16.5443 47.0703 16.0169 47.1094 15.4961C47.1615 14.9753 47.2201 14.4414 47.2852 13.8945C47.4284 12.7747 47.5651 11.6615 47.6953 10.5547C47.8385 9.4349 47.9167 8.30208 47.9297 7.15625C47.9297 6.90885 48.0078 6.72656 48.1641 6.60938C48.3333 6.47917 48.5156 6.41406 48.7109 6.41406C48.9062 6.41406 49.082 6.47917 49.2383 6.60938C49.4076 6.72656 49.4922 6.90885 49.4922 7.15625C49.4792 8.32812 49.3945 9.48698 49.2383 10.6328C49.0951 11.7656 48.9518 12.9049 48.8086 14.0508C48.7435 14.6367 48.6914 15.2161 48.6523 15.7891C48.6133 16.349 48.6003 16.9219 48.6133 17.5078C48.6263 18.0677 48.6393 18.6211 48.6523 19.168C48.6784 19.7148 48.6784 20.2682 48.6523 20.8281C48.6393 21.0234 48.5742 21.1862 48.457 21.3164C48.3529 21.4336 48.2227 21.5117 48.0664 21.5508C47.9102 21.5898 47.7539 21.5833 47.5977 21.5312C47.4414 21.4792 47.3112 21.375 47.207 21.2188C46.9076 20.763 46.6536 20.2878 46.4453 19.793C46.237 19.2852 46.0417 18.7839 45.8594 18.2891C45.6771 17.8073 45.4883 17.3451 45.293 16.9023C45.0977 16.4466 44.8763 15.9974 44.6289 15.5547C44.3034 14.9688 43.9518 14.4089 43.5742 13.875C43.2096 13.3411 42.819 12.8203 42.4023 12.3125C42.4023 12.8464 42.4023 13.3737 42.4023 13.8945C42.4023 14.4023 42.4154 14.9232 42.4414 15.457C42.4674 16.3945 42.5326 17.3255 42.6367 18.25C42.7409 19.1615 42.8516 20.0794 42.9688 21.0039C42.9948 21.2253 42.9167 21.4141 42.7344 21.5703C42.5651 21.7135 42.3893 21.7852 42.207 21.7852C41.9727 21.7852 41.7904 21.7135 41.6602 21.5703C41.5299 21.4141 41.4518 21.2253 41.4258 21.0039C41.2956 20.0794 41.1784 19.1615 41.0742 18.25C40.9701 17.3255 40.9049 16.3945 40.8789 15.457C40.8529 14.6367 40.8398 13.8229 40.8398 13.0156C40.8529 12.1953 40.8594 11.375 40.8594 10.5547ZM51.4453 14.4219C51.6927 14.0833 51.9857 13.7839 52.3242 13.5234C52.6758 13.263 53.0469 13.0612 53.4375 12.918C53.8281 12.7617 54.2318 12.6836 54.6484 12.6836C55.0651 12.6706 55.4818 12.7487 55.8984 12.918C56.3021 13.0742 56.6667 13.2891 56.9922 13.5625C57.3177 13.8229 57.5716 14.1615 57.7539 14.5781C57.8971 14.8906 57.9818 15.2292 58.0078 15.5938C58.0339 15.9583 57.9362 16.2904 57.7148 16.5898C57.5195 16.8633 57.2786 17.0716 56.9922 17.2148C56.7188 17.3581 56.4193 17.4622 56.0938 17.5273C55.7812 17.5924 55.4557 17.625 55.1172 17.625C54.7917 17.625 54.4792 17.6185 54.1797 17.6055C53.8411 17.5924 53.5026 17.5664 53.1641 17.5273C52.8385 17.4883 52.5065 17.4492 52.168 17.4102C52.2721 17.9961 52.4805 18.5169 52.793 18.9727C53.1055 19.4284 53.5286 19.7734 54.0625 20.0078C54.2057 20.0599 54.3164 20.099 54.3945 20.125C54.4336 20.138 54.4661 20.151 54.4922 20.1641C54.5312 20.1641 54.5703 20.1641 54.6094 20.1641C54.7135 20.1771 54.7982 20.1901 54.8633 20.2031C54.9414 20.2031 55.013 20.1966 55.0781 20.1836C55.1693 20.1706 55.2279 20.1641 55.2539 20.1641C55.293 20.151 55.332 20.138 55.3711 20.125C55.5143 20.0859 55.638 20.0404 55.7422 19.9883C55.8594 19.9362 55.9961 19.8516 56.1523 19.7344C56.2305 19.6693 56.3346 19.5716 56.4648 19.4414C56.5951 19.3112 56.7057 19.194 56.7969 19.0898C56.9271 18.9076 57.0833 18.7839 57.2656 18.7188C57.4609 18.6536 57.6562 18.6797 57.8516 18.7969C58.0208 18.901 58.138 19.0638 58.2031 19.2852C58.2812 19.4935 58.2552 19.6888 58.125 19.8711C57.7474 20.3789 57.2982 20.8151 56.7773 21.1797C56.2695 21.5312 55.6836 21.7201 55.0195 21.7461C54.4857 21.7721 53.9714 21.681 53.4766 21.4727C52.9818 21.2513 52.5456 20.9583 52.168 20.5938C51.6992 20.138 51.3281 19.6107 51.0547 19.0117C50.7812 18.4128 50.6315 17.8008 50.6055 17.1758C50.4883 17.0846 50.3971 16.974 50.332 16.8438C50.2799 16.7005 50.2604 16.5573 50.2734 16.4141C50.2995 16.2708 50.3516 16.1406 50.4297 16.0234C50.5078 15.8932 50.625 15.8086 50.7812 15.7695C50.9245 15.2878 51.1458 14.8385 51.4453 14.4219ZM56.1328 14.8906C55.9896 14.7083 55.7682 14.5456 55.4688 14.4023C55.2214 14.2982 54.9284 14.2461 54.5898 14.2461C54.2643 14.2461 53.9844 14.3047 53.75 14.4219C53.4505 14.5651 53.1836 14.7669 52.9492 15.0273C52.7148 15.2747 52.526 15.5547 52.3828 15.8672C52.6953 15.9062 53.0078 15.9453 53.3203 15.9844C53.6328 16.0234 53.9453 16.0495 54.2578 16.0625C54.4271 16.0625 54.5964 16.0625 54.7656 16.0625C54.9349 16.0625 55.1042 16.056 55.2734 16.043C55.3255 16.043 55.3711 16.043 55.4102 16.043C55.4622 16.0299 55.5143 16.0234 55.5664 16.0234C55.6836 15.9974 55.7682 15.9844 55.8203 15.9844C55.8854 15.9714 55.9505 15.9518 56.0156 15.9258C56.0677 15.9128 56.1328 15.8932 56.2109 15.8672C56.276 15.8411 56.3151 15.8216 56.3281 15.8086C56.3411 15.7956 56.3607 15.7826 56.3867 15.7695L56.4453 15.5352C56.4193 15.4831 56.3997 15.4375 56.3867 15.3984C56.3867 15.3464 56.3737 15.3008 56.3477 15.2617C56.3346 15.2227 56.3021 15.1641 56.25 15.0859C56.2109 15.0078 56.1719 14.9427 56.1328 14.8906ZM60.918 19.168C60.8138 18.8294 60.7161 18.4844 60.625 18.1328C60.5469 17.7812 60.4557 17.4362 60.3516 17.0977C60.2083 16.5378 59.9935 15.9779 59.707 15.418C59.5638 15.1315 59.4206 14.8451 59.2773 14.5586C59.1341 14.2591 59.0299 13.9531 58.9648 13.6406C58.9128 13.3932 58.9518 13.1914 59.082 13.0352C59.2253 12.8659 59.388 12.7552 59.5703 12.7031C59.7526 12.651 59.9349 12.6641 60.1172 12.7422C60.2995 12.8203 60.4167 12.9831 60.4688 13.2305C60.5339 13.543 60.638 13.8359 60.7812 14.1094C60.9375 14.3828 61.0872 14.6628 61.2305 14.9492C61.3737 15.2487 61.4974 15.5547 61.6016 15.8672C61.7057 16.1797 61.8034 16.4922 61.8945 16.8047C61.9987 17.1432 62.0898 17.4948 62.168 17.8594C62.2591 18.2109 62.3633 18.556 62.4805 18.8945C62.5195 19.0247 62.5586 19.1549 62.5977 19.2852C62.6497 19.4023 62.7018 19.526 62.7539 19.6562C62.8841 19.2786 62.9883 18.9531 63.0664 18.6797C63.1445 18.3932 63.2357 18.1198 63.3398 17.8594C63.4831 17.4688 63.6198 17.0846 63.75 16.707C63.8802 16.3164 63.9974 15.9193 64.1016 15.5156C64.2057 15.138 64.2839 14.7604 64.3359 14.3828C64.388 13.9922 64.4661 13.6081 64.5703 13.2305C64.6354 12.9961 64.7656 12.8398 64.9609 12.7617C65.1562 12.6836 65.3451 12.6706 65.5273 12.7227C65.7096 12.7747 65.8594 12.8854 65.9766 13.0547C66.1068 13.2109 66.1393 13.4062 66.0742 13.6406C65.944 14.0703 65.8529 14.5065 65.8008 14.9492C65.7487 15.3789 65.6576 15.8021 65.5273 16.2188C65.4102 16.6354 65.2734 17.0521 65.1172 17.4688C64.974 17.8724 64.8307 18.2826 64.6875 18.6992C64.5964 18.9857 64.5052 19.2852 64.4141 19.5977C64.3229 19.8971 64.2122 20.1901 64.082 20.4766C63.9648 20.763 63.8151 21.0299 63.6328 21.2773C63.4505 21.5247 63.2227 21.7331 62.9492 21.9023C62.7018 22.0456 62.474 22.0586 62.2656 21.9414C62.0573 21.8242 61.901 21.6549 61.7969 21.4336C61.6406 21.056 61.4844 20.6784 61.3281 20.3008C61.1849 19.9232 61.0482 19.5456 60.918 19.168ZM67.9688 14.4219C68.2161 14.0833 68.5091 13.7839 68.8477 13.5234C69.1992 13.263 69.5703 13.0612 69.9609 12.918C70.3516 12.7617 70.7552 12.6836 71.1719 12.6836C71.5885 12.6706 72.0052 12.7487 72.4219 12.918C72.8255 13.0742 73.1901 13.2891 73.5156 13.5625C73.8411 13.8229 74.0951 14.1615 74.2773 14.5781C74.4206 14.8906 74.5052 15.2292 74.5312 15.5938C74.5573 15.9583 74.4596 16.2904 74.2383 16.5898C74.043 16.8633 73.8021 17.0716 73.5156 17.2148C73.2422 17.3581 72.9427 17.4622 72.6172 17.5273C72.3047 17.5924 71.9792 17.625 71.6406 17.625C71.3151 17.625 71.0026 17.6185 70.7031 17.6055C70.3646 17.5924 70.026 17.5664 69.6875 17.5273C69.362 17.4883 69.0299 17.4492 68.6914 17.4102C68.7956 17.9961 69.0039 18.5169 69.3164 18.9727C69.6289 19.4284 70.0521 19.7734 70.5859 20.0078C70.7292 20.0599 70.8398 20.099 70.918 20.125C70.957 20.138 70.9896 20.151 71.0156 20.1641C71.0547 20.1641 71.0938 20.1641 71.1328 20.1641C71.237 20.1771 71.3216 20.1901 71.3867 20.2031C71.4648 20.2031 71.5365 20.1966 71.6016 20.1836C71.6927 20.1706 71.7513 20.1641 71.7773 20.1641C71.8164 20.151 71.8555 20.138 71.8945 20.125C72.0378 20.0859 72.1615 20.0404 72.2656 19.9883C72.3828 19.9362 72.5195 19.8516 72.6758 19.7344C72.7539 19.6693 72.8581 19.5716 72.9883 19.4414C73.1185 19.3112 73.2292 19.194 73.3203 19.0898C73.4505 18.9076 73.6068 18.7839 73.7891 18.7188C73.9844 18.6536 74.1797 18.6797 74.375 18.7969C74.5443 18.901 74.6615 19.0638 74.7266 19.2852C74.8047 19.4935 74.7786 19.6888 74.6484 19.8711C74.2708 20.3789 73.8216 20.8151 73.3008 21.1797C72.793 21.5312 72.207 21.7201 71.543 21.7461C71.0091 21.7721 70.4948 21.681 70 21.4727C69.5052 21.2513 69.069 20.9583 68.6914 20.5938C68.2227 20.138 67.8516 19.6107 67.5781 19.0117C67.3047 18.4128 67.1549 17.8008 67.1289 17.1758C67.0117 17.0846 66.9206 16.974 66.8555 16.8438C66.8034 16.7005 66.7839 16.5573 66.7969 16.4141C66.8229 16.2708 66.875 16.1406 66.9531 16.0234C67.0312 15.8932 67.1484 15.8086 67.3047 15.7695C67.4479 15.2878 67.6693 14.8385 67.9688 14.4219ZM72.6562 14.8906C72.513 14.7083 72.2917 14.5456 71.9922 14.4023C71.7448 14.2982 71.4518 14.2461 71.1133 14.2461C70.7878 14.2461 70.5078 14.3047 70.2734 14.4219C69.974 14.5651 69.707 14.7669 69.4727 15.0273C69.2383 15.2747 69.0495 15.5547 68.9062 15.8672C69.2188 15.9062 69.5312 15.9453 69.8438 15.9844C70.1562 16.0234 70.4688 16.0495 70.7812 16.0625C70.9505 16.0625 71.1198 16.0625 71.2891 16.0625C71.4583 16.0625 71.6276 16.056 71.7969 16.043C71.849 16.043 71.8945 16.043 71.9336 16.043C71.9857 16.0299 72.0378 16.0234 72.0898 16.0234C72.207 15.9974 72.2917 15.9844 72.3438 15.9844C72.4089 15.9714 72.474 15.9518 72.5391 15.9258C72.5911 15.9128 72.6562 15.8932 72.7344 15.8672C72.7995 15.8411 72.8385 15.8216 72.8516 15.8086C72.8646 15.7956 72.8841 15.7826 72.9102 15.7695L72.9688 15.5352C72.9427 15.4831 72.9232 15.4375 72.9102 15.3984C72.9102 15.3464 72.8971 15.3008 72.8711 15.2617C72.8581 15.2227 72.8255 15.1641 72.7734 15.0859C72.7344 15.0078 72.6953 14.9427 72.6562 14.8906ZM76.4258 14.0508C76.4388 13.8034 76.5299 13.6211 76.6992 13.5039C76.8685 13.3737 77.0508 13.3086 77.2461 13.3086C77.4414 13.3086 77.6107 13.3737 77.7539 13.5039C77.9102 13.6211 77.9818 13.8034 77.9688 14.0508C77.9688 14.1289 77.9622 14.2135 77.9492 14.3047C77.9492 14.3828 77.9492 14.4609 77.9492 14.5391C78.3659 14.3307 78.8021 14.1549 79.2578 14.0117C79.7266 13.8555 80.1888 13.7578 80.6445 13.7188C81.1133 13.6797 81.5625 13.7188 81.9922 13.8359C82.4349 13.9401 82.8385 14.1484 83.2031 14.4609C83.3854 14.6302 83.4635 14.8125 83.4375 15.0078C83.4245 15.2031 83.3464 15.3724 83.2031 15.5156C83.0729 15.6458 82.9036 15.7305 82.6953 15.7695C82.487 15.7956 82.2852 15.7305 82.0898 15.5742C81.9466 15.457 81.7839 15.3724 81.6016 15.3203C81.4323 15.2682 81.2435 15.2487 81.0352 15.2617C80.8398 15.2617 80.638 15.2812 80.4297 15.3203C80.2344 15.3594 80.0456 15.4049 79.8633 15.457C79.1732 15.6784 78.5286 15.9714 77.9297 16.3359C77.9557 16.974 77.9948 17.612 78.0469 18.25C78.099 18.7839 78.1445 19.3372 78.1836 19.9102C78.2227 20.4701 78.3333 21.0039 78.5156 21.5117C78.5938 21.7461 78.5742 21.9414 78.457 22.0977C78.3529 22.2669 78.2031 22.3776 78.0078 22.4297C77.8255 22.4818 77.6302 22.4688 77.4219 22.3906C77.2266 22.3125 77.0898 22.1562 77.0117 21.9219C76.9076 21.6224 76.8359 21.3164 76.7969 21.0039C76.7578 20.6914 76.7188 20.3789 76.6797 20.0664C76.6536 19.7669 76.6211 19.4674 76.582 19.168C76.556 18.8555 76.5299 18.5495 76.5039 18.25C76.4388 17.5469 76.3932 16.8503 76.3672 16.1602C76.3542 15.457 76.3737 14.7539 76.4258 14.0508ZM91.2695 17.6641C90.931 17.4167 90.6901 17.1107 90.5469 16.7461C90.4036 16.3685 90.3971 15.9714 90.5273 15.5547C90.6576 15.1771 90.8594 14.8385 91.1328 14.5391C91.4062 14.2396 91.7188 13.9987 92.0703 13.8164C92.4609 13.6081 92.8776 13.4453 93.3203 13.3281C93.763 13.2109 94.2122 13.1458 94.668 13.1328C95.1237 13.1198 95.5729 13.1654 96.0156 13.2695C96.4714 13.3607 96.901 13.5104 97.3047 13.7188C97.526 13.8359 97.6497 13.9922 97.6758 14.1875C97.7018 14.3828 97.6628 14.5651 97.5586 14.7344C97.4674 14.9036 97.3242 15.0273 97.1289 15.1055C96.9336 15.1836 96.7253 15.1641 96.5039 15.0469C96.1914 14.8776 95.8398 14.7669 95.4492 14.7148C95.0586 14.6628 94.6615 14.6628 94.2578 14.7148C93.8672 14.7539 93.4961 14.8516 93.1445 15.0078C92.793 15.1641 92.5 15.3659 92.2656 15.6133C92.2005 15.6784 92.1549 15.724 92.1289 15.75C92.1159 15.776 92.0898 15.8346 92.0508 15.9258L92.0117 16.1406C92.0508 16.2578 92.0833 16.3294 92.1094 16.3555C92.3698 16.5247 92.6367 16.6354 92.9102 16.6875C93.1966 16.7266 93.4831 16.7526 93.7695 16.7656C94.1732 16.7917 94.5833 16.8177 95 16.8438C95.4297 16.8568 95.8398 16.9089 96.2305 17C96.6341 17.0911 97.0052 17.2409 97.3438 17.4492C97.6823 17.6576 97.9688 17.9635 98.2031 18.3672C98.4635 18.8229 98.5807 19.2982 98.5547 19.793C98.5417 20.2747 98.3529 20.7109 97.9883 21.1016C97.6237 21.4922 97.2005 21.7656 96.7188 21.9219C96.237 22.0651 95.7487 22.1693 95.2539 22.2344C94.8112 22.2865 94.349 22.2995 93.8672 22.2734C93.3984 22.2474 92.9427 22.1693 92.5 22.0391C92.0703 21.9219 91.6667 21.7396 91.2891 21.4922C90.9115 21.2318 90.599 20.8932 90.3516 20.4766C90.2344 20.2682 90.2148 20.0729 90.293 19.8906C90.3711 19.6953 90.4883 19.5521 90.6445 19.4609C90.8138 19.3568 90.9961 19.3177 91.1914 19.3438C91.3997 19.3698 91.569 19.487 91.6992 19.6953C91.8815 19.9948 92.1354 20.2227 92.4609 20.3789C92.7865 20.5352 93.138 20.6458 93.5156 20.7109C93.9062 20.763 94.2969 20.776 94.6875 20.75C95.0781 20.7109 95.4297 20.6589 95.7422 20.5938C95.9115 20.5547 96.0807 20.5026 96.25 20.4375C96.4323 20.3594 96.582 20.2682 96.6992 20.1641C96.8294 20.0599 96.9206 19.9427 96.9727 19.8125C97.0247 19.6693 97.0182 19.513 96.9531 19.3438C96.8229 19.0182 96.6016 18.7839 96.2891 18.6406C95.9896 18.4974 95.6706 18.4128 95.332 18.3867C94.9935 18.3607 94.6484 18.3477 94.2969 18.3477C93.9453 18.3477 93.5938 18.3346 93.2422 18.3086C92.8906 18.2695 92.5456 18.2044 92.207 18.1133C91.8685 18.0221 91.556 17.8724 91.2695 17.6641ZM105.977 15.1836C106.224 15.1836 106.406 15.2617 106.523 15.418C106.654 15.5742 106.719 15.75 106.719 15.9453C106.719 16.1406 106.654 16.3229 106.523 16.4922C106.406 16.6484 106.224 16.7266 105.977 16.7266C105.664 16.7396 105.352 16.7396 105.039 16.7266C104.74 16.7005 104.44 16.6745 104.141 16.6484C104.154 17.6771 104.134 18.7057 104.082 19.7344C104.043 20.763 103.939 21.7852 103.77 22.8008C103.743 23.0221 103.626 23.1849 103.418 23.2891C103.21 23.3932 103.008 23.4128 102.812 23.3477C102.591 23.2826 102.435 23.1589 102.344 22.9766C102.266 22.8073 102.246 22.612 102.285 22.3906C102.441 21.401 102.526 20.4115 102.539 19.4219C102.565 18.4323 102.565 17.4362 102.539 16.4336C102.044 16.3555 101.543 16.2773 101.035 16.1992C100.527 16.1081 100.026 16.0299 99.5312 15.9648C99.3099 15.9388 99.1536 15.8216 99.0625 15.6133C98.9583 15.3919 98.9323 15.1901 98.9844 15.0078C99.0495 14.7865 99.1732 14.6367 99.3555 14.5586C99.5378 14.4674 99.7331 14.4349 99.9414 14.4609C100.371 14.526 100.801 14.5977 101.23 14.6758C101.66 14.7409 102.096 14.806 102.539 14.8711C102.526 14.806 102.52 14.7083 102.52 14.5781C102.52 13.4062 102.513 12.2474 102.5 11.1016C102.5 9.95573 102.559 8.79688 102.676 7.625C102.702 7.41667 102.78 7.23438 102.91 7.07812C103.053 6.92188 103.236 6.84375 103.457 6.84375C103.652 6.84375 103.835 6.92188 104.004 7.07812C104.186 7.23438 104.264 7.41667 104.238 7.625C104.108 8.875 104.043 10.1185 104.043 11.3555C104.056 12.5794 104.076 13.8229 104.102 15.0859C104.414 15.112 104.727 15.138 105.039 15.1641C105.352 15.1771 105.664 15.1836 105.977 15.1836ZM112.578 12.9961C112.995 12.944 113.431 12.931 113.887 12.957C114.342 12.9701 114.779 13.0482 115.195 13.1914C115.612 13.3216 115.99 13.5234 116.328 13.7969C116.667 14.0703 116.927 14.4284 117.109 14.8711C117.24 15.1836 117.305 15.5026 117.305 15.8281C117.318 16.1406 117.272 16.4466 117.168 16.7461C117.077 17.0326 116.934 17.3125 116.738 17.5859C116.556 17.8464 116.341 18.0872 116.094 18.3086C115.56 18.7904 114.974 19.2005 114.336 19.5391C113.698 19.8776 113.027 20.138 112.324 20.3203C112.025 20.3984 111.712 20.4701 111.387 20.5352C111.074 20.5872 110.755 20.6133 110.43 20.6133C110.104 20.6133 109.785 20.5807 109.473 20.5156C109.16 20.4375 108.867 20.3138 108.594 20.1445C108.398 20.0273 108.281 19.8711 108.242 19.6758C108.164 19.4544 108.079 19.2461 107.988 19.0508C107.897 18.8555 107.806 18.6536 107.715 18.4453C107.637 18.237 107.572 18.0286 107.52 17.8203C107.467 17.612 107.441 17.3971 107.441 17.1758C107.441 16.7331 107.533 16.3164 107.715 15.9258C107.91 15.5221 108.171 15.1706 108.496 14.8711C109.043 14.3503 109.674 13.9336 110.391 13.6211C111.107 13.3086 111.836 13.1003 112.578 12.9961ZM114.785 14.6758C114.434 14.5456 114.056 14.4805 113.652 14.4805C113.223 14.4674 112.793 14.513 112.363 14.6172C111.934 14.7083 111.523 14.8385 111.133 15.0078C110.768 15.151 110.391 15.3529 110 15.6133C109.622 15.8607 109.342 16.1667 109.16 16.5312C109.056 16.7266 109.004 16.9284 109.004 17.1367C109.017 17.332 109.049 17.5339 109.102 17.7422C109.167 17.9375 109.245 18.1393 109.336 18.3477C109.44 18.543 109.531 18.7383 109.609 18.9336C109.818 18.9857 109.948 19.0117 110 19.0117C110.026 19.0247 110.059 19.0312 110.098 19.0312C110.137 19.0312 110.169 19.0312 110.195 19.0312C110.456 19.0573 110.69 19.0508 110.898 19.0117C111.042 19.0117 111.224 18.9857 111.445 18.9336C111.784 18.8685 112.109 18.7839 112.422 18.6797C112.734 18.5625 113.021 18.4388 113.281 18.3086C113.581 18.1654 113.874 18.0091 114.16 17.8398C114.447 17.6706 114.688 17.4948 114.883 17.3125C115.013 17.1953 115.137 17.0716 115.254 16.9414C115.319 16.8763 115.365 16.8242 115.391 16.7852C115.456 16.694 115.508 16.6289 115.547 16.5898C115.586 16.5378 115.618 16.4792 115.645 16.4141C115.697 16.3229 115.723 16.2513 115.723 16.1992C115.736 16.1732 115.742 16.1406 115.742 16.1016C115.755 16.0625 115.768 16.0299 115.781 16.0039V15.7891C115.768 15.737 115.762 15.6979 115.762 15.6719C115.762 15.6458 115.755 15.6198 115.742 15.5938C115.703 15.5026 115.664 15.4375 115.625 15.3984C115.599 15.3464 115.566 15.2943 115.527 15.2422C115.54 15.2552 115.521 15.2357 115.469 15.1836C115.43 15.1315 115.404 15.099 115.391 15.0859L115.234 14.9297C115.169 14.8906 115.098 14.8451 115.02 14.793C114.941 14.7409 114.863 14.7018 114.785 14.6758ZM120.625 27.625C120.638 27.8724 120.566 28.0547 120.41 28.1719C120.267 28.3021 120.098 28.3672 119.902 28.3672C119.707 28.3672 119.525 28.3021 119.355 28.1719C119.186 28.0547 119.095 27.8724 119.082 27.625C118.939 25.5417 118.854 23.4648 118.828 21.3945C118.802 19.3112 118.743 17.2279 118.652 15.1445C118.47 14.8581 118.457 14.5846 118.613 14.3242C118.6 14.181 118.587 14.0508 118.574 13.9336C118.574 13.8034 118.568 13.6667 118.555 13.5234C118.542 13.2891 118.607 13.1133 118.75 12.9961C118.893 12.8659 119.056 12.7943 119.238 12.7812C119.434 12.7682 119.616 12.8203 119.785 12.9375C119.954 13.0417 120.059 13.2044 120.098 13.4258C120.319 13.3216 120.527 13.224 120.723 13.1328C120.931 13.0417 121.146 12.9505 121.367 12.8594C121.549 12.7812 121.751 12.7096 121.973 12.6445C122.194 12.5664 122.422 12.5078 122.656 12.4688C122.891 12.4297 123.118 12.4102 123.34 12.4102C123.574 12.4102 123.789 12.4492 123.984 12.5273C124.375 12.6836 124.694 12.918 124.941 13.2305C125.202 13.543 125.417 13.888 125.586 14.2656C125.742 14.6302 125.892 15.0013 126.035 15.3789C126.178 15.7435 126.257 16.1211 126.27 16.5117C126.283 16.9154 126.224 17.293 126.094 17.6445C125.964 17.9961 125.781 18.3151 125.547 18.6016C125.326 18.888 125.059 19.1419 124.746 19.3633C124.434 19.5846 124.102 19.7734 123.75 19.9297C123.372 20.099 122.982 20.2487 122.578 20.3789C122.174 20.5091 121.764 20.5938 121.348 20.6328C121.165 20.6589 120.99 20.6523 120.82 20.6133C120.664 20.5742 120.514 20.5221 120.371 20.457C120.397 21.668 120.423 22.8659 120.449 24.0508C120.488 25.2357 120.547 26.4271 120.625 27.625ZM120.215 15.1055C120.241 15.7044 120.26 16.3034 120.273 16.9023C120.286 17.4883 120.306 18.0807 120.332 18.6797C120.41 18.7318 120.488 18.7839 120.566 18.8359C120.645 18.875 120.729 18.9206 120.82 18.9727C120.924 19.0378 121.009 19.0768 121.074 19.0898C121.139 19.0898 121.243 19.0768 121.387 19.0508C121.673 18.9857 121.96 18.9206 122.246 18.8555C122.533 18.7773 122.806 18.6732 123.066 18.543C123.314 18.4258 123.548 18.3021 123.77 18.1719C123.991 18.0286 124.193 17.8464 124.375 17.625C124.492 17.4818 124.583 17.319 124.648 17.1367C124.714 16.9414 124.733 16.7331 124.707 16.5117C124.694 16.2513 124.629 15.9844 124.512 15.7109C124.408 15.4375 124.303 15.1836 124.199 14.9492C124.134 14.832 124.069 14.7148 124.004 14.5977C123.952 14.4674 123.887 14.3503 123.809 14.2461C123.691 14.1289 123.6 14.0573 123.535 14.0312C123.171 14.0052 122.852 14.0247 122.578 14.0898C122.305 14.1549 122.031 14.2461 121.758 14.3633C121.497 14.4674 121.237 14.5846 120.977 14.7148C120.716 14.8451 120.462 14.9753 120.215 15.1055ZM135.156 6.66797C135.391 6.66797 135.573 6.74609 135.703 6.90234C135.833 7.05859 135.911 7.24089 135.938 7.44922C136.068 8.6862 136.139 9.92318 136.152 11.1602C136.165 12.3971 136.146 13.6341 136.094 14.8711C136.055 16.1081 135.99 17.3451 135.898 18.582C135.807 19.819 135.716 21.0495 135.625 22.2734C135.599 22.4948 135.514 22.6771 135.371 22.8203C135.241 22.9766 135.065 23.0547 134.844 23.0547C134.648 23.0547 134.466 22.9766 134.297 22.8203C134.128 22.6771 134.049 22.4948 134.062 22.2734C134.154 21.0495 134.245 19.819 134.336 18.582C134.44 17.3451 134.512 16.1081 134.551 14.8711C134.603 13.6341 134.622 12.3971 134.609 11.1602C134.596 9.92318 134.525 8.6862 134.395 7.44922C134.368 7.24089 134.44 7.05859 134.609 6.90234C134.779 6.74609 134.961 6.66797 135.156 6.66797ZM138.73 14.4219C138.978 14.0833 139.271 13.7839 139.609 13.5234C139.961 13.263 140.332 13.0612 140.723 12.918C141.113 12.7617 141.517 12.6836 141.934 12.6836C142.35 12.6706 142.767 12.7487 143.184 12.918C143.587 13.0742 143.952 13.2891 144.277 13.5625C144.603 13.8229 144.857 14.1615 145.039 14.5781C145.182 14.8906 145.267 15.2292 145.293 15.5938C145.319 15.9583 145.221 16.2904 145 16.5898C144.805 16.8633 144.564 17.0716 144.277 17.2148C144.004 17.3581 143.704 17.4622 143.379 17.5273C143.066 17.5924 142.741 17.625 142.402 17.625C142.077 17.625 141.764 17.6185 141.465 17.6055C141.126 17.5924 140.788 17.5664 140.449 17.5273C140.124 17.4883 139.792 17.4492 139.453 17.4102C139.557 17.9961 139.766 18.5169 140.078 18.9727C140.391 19.4284 140.814 19.7734 141.348 20.0078C141.491 20.0599 141.602 20.099 141.68 20.125C141.719 20.138 141.751 20.151 141.777 20.1641C141.816 20.1641 141.855 20.1641 141.895 20.1641C141.999 20.1771 142.083 20.1901 142.148 20.2031C142.227 20.2031 142.298 20.1966 142.363 20.1836C142.454 20.1706 142.513 20.1641 142.539 20.1641C142.578 20.151 142.617 20.138 142.656 20.125C142.799 20.0859 142.923 20.0404 143.027 19.9883C143.145 19.9362 143.281 19.8516 143.438 19.7344C143.516 19.6693 143.62 19.5716 143.75 19.4414C143.88 19.3112 143.991 19.194 144.082 19.0898C144.212 18.9076 144.368 18.7839 144.551 18.7188C144.746 18.6536 144.941 18.6797 145.137 18.7969C145.306 18.901 145.423 19.0638 145.488 19.2852C145.566 19.4935 145.54 19.6888 145.41 19.8711C145.033 20.3789 144.583 20.8151 144.062 21.1797C143.555 21.5312 142.969 21.7201 142.305 21.7461C141.771 21.7721 141.257 21.681 140.762 21.4727C140.267 21.2513 139.831 20.9583 139.453 20.5938C138.984 20.138 138.613 19.6107 138.34 19.0117C138.066 18.4128 137.917 17.8008 137.891 17.1758C137.773 17.0846 137.682 16.974 137.617 16.8438C137.565 16.7005 137.546 16.5573 137.559 16.4141C137.585 16.2708 137.637 16.1406 137.715 16.0234C137.793 15.8932 137.91 15.8086 138.066 15.7695C138.21 15.2878 138.431 14.8385 138.73 14.4219ZM143.418 14.8906C143.275 14.7083 143.053 14.5456 142.754 14.4023C142.507 14.2982 142.214 14.2461 141.875 14.2461C141.549 14.2461 141.27 14.3047 141.035 14.4219C140.736 14.5651 140.469 14.7669 140.234 15.0273C140 15.2747 139.811 15.5547 139.668 15.8672C139.98 15.9062 140.293 15.9453 140.605 15.9844C140.918 16.0234 141.23 16.0495 141.543 16.0625C141.712 16.0625 141.882 16.0625 142.051 16.0625C142.22 16.0625 142.389 16.056 142.559 16.043C142.611 16.043 142.656 16.043 142.695 16.043C142.747 16.0299 142.799 16.0234 142.852 16.0234C142.969 15.9974 143.053 15.9844 143.105 15.9844C143.171 15.9714 143.236 15.9518 143.301 15.9258C143.353 15.9128 143.418 15.8932 143.496 15.8672C143.561 15.8411 143.6 15.8216 143.613 15.8086C143.626 15.7956 143.646 15.7826 143.672 15.7695L143.73 15.5352C143.704 15.4831 143.685 15.4375 143.672 15.3984C143.672 15.3464 143.659 15.3008 143.633 15.2617C143.62 15.2227 143.587 15.1641 143.535 15.0859C143.496 15.0078 143.457 14.9427 143.418 14.8906ZM148.32 21.4727C147.878 21.2773 147.526 21.0104 147.266 20.6719C147.018 20.3203 146.842 19.9362 146.738 19.5195C146.647 19.1029 146.621 18.6732 146.66 18.2305C146.699 17.7747 146.79 17.3385 146.934 16.9219C147.051 16.5964 147.181 16.2578 147.324 15.9062C147.48 15.5547 147.663 15.2292 147.871 14.9297C148.079 14.6302 148.327 14.3763 148.613 14.168C148.9 13.9466 149.238 13.8034 149.629 13.7383C150.033 13.6732 150.436 13.6536 150.84 13.6797C151.257 13.6927 151.667 13.7318 152.07 13.7969C152.253 13.8229 152.428 13.8685 152.598 13.9336C152.767 13.9857 152.936 14.0443 153.105 14.1094C153.118 13.9141 153.203 13.7513 153.359 13.6211C153.529 13.4909 153.704 13.4258 153.887 13.4258C154.108 13.4258 154.284 13.5039 154.414 13.6602C154.557 13.8034 154.642 13.9792 154.668 14.1875C154.733 14.7865 154.759 15.3854 154.746 15.9844C154.746 16.5833 154.727 17.1823 154.688 17.7812C154.661 18.3802 154.635 18.9792 154.609 19.5781C154.596 20.1771 154.603 20.776 154.629 21.375C154.642 21.6224 154.564 21.8112 154.395 21.9414C154.238 22.0586 154.062 22.1172 153.867 22.1172C153.672 22.1172 153.49 22.0586 153.32 21.9414C153.164 21.8112 153.079 21.6224 153.066 21.375C152.324 21.6875 151.536 21.8698 150.703 21.9219C149.87 21.9609 149.076 21.8112 148.32 21.4727ZM148.457 17.2344C148.379 17.4688 148.307 17.7357 148.242 18.0352C148.177 18.3346 148.158 18.6211 148.184 18.8945C148.21 19.168 148.294 19.4219 148.438 19.6562C148.581 19.8776 148.815 20.0339 149.141 20.125C149.805 20.3333 150.469 20.3919 151.133 20.3008C151.81 20.2096 152.441 19.9753 153.027 19.5977C153.079 18.9596 153.118 18.3411 153.145 17.7422C153.184 17.1432 153.197 16.5378 153.184 15.9258C152.962 15.7826 152.734 15.6589 152.5 15.5547C152.279 15.4375 152.031 15.3594 151.758 15.3203C151.484 15.2812 151.191 15.2552 150.879 15.2422C150.579 15.2161 150.286 15.2161 150 15.2422C149.974 15.2422 149.902 15.2617 149.785 15.3008C149.681 15.3268 149.622 15.3464 149.609 15.3594C149.479 15.4245 149.362 15.5286 149.258 15.6719C149.089 15.9062 148.939 16.1602 148.809 16.4336C148.678 16.694 148.561 16.9609 148.457 17.2344ZM156.895 14.0508C156.908 13.8034 156.999 13.6211 157.168 13.5039C157.337 13.3737 157.52 13.3086 157.715 13.3086C157.91 13.3086 158.079 13.3737 158.223 13.5039C158.379 13.6211 158.451 13.8034 158.438 14.0508C158.438 14.1289 158.431 14.2135 158.418 14.3047C158.418 14.3828 158.418 14.4609 158.418 14.5391C158.835 14.3307 159.271 14.1549 159.727 14.0117C160.195 13.8555 160.658 13.7578 161.113 13.7188C161.582 13.6797 162.031 13.7188 162.461 13.8359C162.904 13.9401 163.307 14.1484 163.672 14.4609C163.854 14.6302 163.932 14.8125 163.906 15.0078C163.893 15.2031 163.815 15.3724 163.672 15.5156C163.542 15.6458 163.372 15.7305 163.164 15.7695C162.956 15.7956 162.754 15.7305 162.559 15.5742C162.415 15.457 162.253 15.3724 162.07 15.3203C161.901 15.2682 161.712 15.2487 161.504 15.2617C161.309 15.2617 161.107 15.2812 160.898 15.3203C160.703 15.3594 160.514 15.4049 160.332 15.457C159.642 15.6784 158.997 15.9714 158.398 16.3359C158.424 16.974 158.464 17.612 158.516 18.25C158.568 18.7839 158.613 19.3372 158.652 19.9102C158.691 20.4701 158.802 21.0039 158.984 21.5117C159.062 21.7461 159.043 21.9414 158.926 22.0977C158.822 22.2669 158.672 22.3776 158.477 22.4297C158.294 22.4818 158.099 22.4688 157.891 22.3906C157.695 22.3125 157.559 22.1562 157.48 21.9219C157.376 21.6224 157.305 21.3164 157.266 21.0039C157.227 20.6914 157.188 20.3789 157.148 20.0664C157.122 19.7669 157.09 19.4674 157.051 19.168C157.025 18.8555 156.999 18.5495 156.973 18.25C156.908 17.5469 156.862 16.8503 156.836 16.1602C156.823 15.457 156.842 14.7539 156.895 14.0508ZM164.941 20.125C164.941 19.5651 164.98 18.9987 165.059 18.4258C165.15 17.7357 165.241 17.0521 165.332 16.375C165.423 15.6849 165.462 14.9883 165.449 14.2852C165.449 14.0378 165.527 13.849 165.684 13.7188C165.84 13.5885 166.016 13.5234 166.211 13.5234C166.406 13.5234 166.589 13.5885 166.758 13.7188C166.927 13.849 167.012 14.0378 167.012 14.2852C167.52 14.2461 168.001 14.2266 168.457 14.2266C168.978 14.2396 169.421 14.3893 169.785 14.6758C170.15 14.9622 170.423 15.3464 170.605 15.8281C170.762 16.2708 170.853 16.7266 170.879 17.1953C170.905 17.6641 170.924 18.1328 170.938 18.6016C170.951 19.2656 170.97 19.9297 170.996 20.5938C171.022 21.2448 171.035 21.9023 171.035 22.5664C171.035 22.8268 170.951 23.0156 170.781 23.1328C170.625 23.263 170.449 23.3281 170.254 23.3281C170.072 23.3281 169.896 23.263 169.727 23.1328C169.57 23.0156 169.492 22.8268 169.492 22.5664C169.492 21.9414 169.479 21.3294 169.453 20.7305C169.44 20.1315 169.421 19.5195 169.395 18.8945C169.368 18.556 169.355 18.2109 169.355 17.8594C169.368 17.4948 169.342 17.1628 169.277 16.8633C169.238 16.681 169.199 16.5247 169.16 16.3945C169.121 16.2513 169.049 16.1146 168.945 15.9844C168.919 15.9323 168.861 15.8867 168.77 15.8477C168.691 15.8086 168.62 15.7891 168.555 15.7891C168.359 15.7891 168.177 15.8021 168.008 15.8281C167.839 15.8542 167.663 15.8932 167.48 15.9453C167.402 15.9714 167.324 15.9974 167.246 16.0234C167.168 16.0495 167.096 16.082 167.031 16.1211C166.901 16.5898 166.803 17.0391 166.738 17.4688C166.686 17.8854 166.634 18.3086 166.582 18.7383C166.543 19.0508 166.517 19.3698 166.504 19.6953C166.504 20.0078 166.491 20.3203 166.465 20.6328C166.452 20.9453 166.413 21.2578 166.348 21.5703C166.296 21.8828 166.198 22.1823 166.055 22.4688C165.938 22.6901 165.781 22.8138 165.586 22.8398C165.391 22.8789 165.208 22.8464 165.039 22.7422C164.883 22.651 164.759 22.5078 164.668 22.3125C164.59 22.1172 164.603 21.9089 164.707 21.6875C164.824 21.4531 164.889 21.1992 164.902 20.9258C164.915 20.6523 164.928 20.3854 164.941 20.125ZM172.969 21.8047C173.073 21.1797 173.19 20.5677 173.32 19.9688C173.464 19.3568 173.568 18.7383 173.633 18.1133C173.685 17.5013 173.691 16.9023 173.652 16.3164C173.626 15.7174 173.665 15.112 173.77 14.5C173.796 14.2917 173.913 14.1354 174.121 14.0312C174.342 13.9271 174.544 13.901 174.727 13.9531C174.948 14.0182 175.098 14.1419 175.176 14.3242C175.267 14.5065 175.299 14.7018 175.273 14.9102C175.221 15.2096 175.195 15.5156 175.195 15.8281C175.208 16.1406 175.221 16.4531 175.234 16.7656C175.234 17.3646 175.195 17.9635 175.117 18.5625C175.039 19.1875 174.935 19.7995 174.805 20.3984C174.688 20.9974 174.577 21.6029 174.473 22.2148C174.434 22.4232 174.31 22.5794 174.102 22.6836C173.893 22.7878 173.698 22.8138 173.516 22.7617C173.294 22.6966 173.138 22.5729 173.047 22.3906C172.956 22.2083 172.93 22.013 172.969 21.8047ZM173.906 12.8203C173.815 12.7943 173.724 12.7552 173.633 12.7031C173.542 12.638 173.477 12.5599 173.438 12.4688C173.398 12.3646 173.366 12.2734 173.34 12.1953C173.314 12.1172 173.301 12.026 173.301 11.9219C173.301 11.8047 173.32 11.6875 173.359 11.5703C173.411 11.3359 173.516 11.1667 173.672 11.0625C173.724 10.9844 173.796 10.9258 173.887 10.8867C174.03 10.7956 174.193 10.75 174.375 10.75C174.557 10.737 174.72 10.7826 174.863 10.8867C174.928 10.9388 174.993 10.9974 175.059 11.0625C175.124 11.1146 175.176 11.1862 175.215 11.2773C175.241 11.3424 175.267 11.4141 175.293 11.4922C175.332 11.5703 175.345 11.6484 175.332 11.7266C175.319 11.8177 175.306 11.9023 175.293 11.9805C175.28 12.0586 175.247 12.1302 175.195 12.1953C175.13 12.2865 175.078 12.3516 175.039 12.3906C175 12.4297 174.935 12.4818 174.844 12.5469C174.792 12.599 174.714 12.638 174.609 12.6641C174.336 12.8203 174.102 12.8724 173.906 12.8203ZM177.559 20.125C177.559 19.5651 177.598 18.9987 177.676 18.4258C177.767 17.7357 177.858 17.0521 177.949 16.375C178.04 15.6849 178.079 14.9883 178.066 14.2852C178.066 14.0378 178.145 13.849 178.301 13.7188C178.457 13.5885 178.633 13.5234 178.828 13.5234C179.023 13.5234 179.206 13.5885 179.375 13.7188C179.544 13.849 179.629 14.0378 179.629 14.2852C180.137 14.2461 180.618 14.2266 181.074 14.2266C181.595 14.2396 182.038 14.3893 182.402 14.6758C182.767 14.9622 183.04 15.3464 183.223 15.8281C183.379 16.2708 183.47 16.7266 183.496 17.1953C183.522 17.6641 183.542 18.1328 183.555 18.6016C183.568 19.2656 183.587 19.9297 183.613 20.5938C183.639 21.2448 183.652 21.9023 183.652 22.5664C183.652 22.8268 183.568 23.0156 183.398 23.1328C183.242 23.263 183.066 23.3281 182.871 23.3281C182.689 23.3281 182.513 23.263 182.344 23.1328C182.188 23.0156 182.109 22.8268 182.109 22.5664C182.109 21.9414 182.096 21.3294 182.07 20.7305C182.057 20.1315 182.038 19.5195 182.012 18.8945C181.986 18.556 181.973 18.2109 181.973 17.8594C181.986 17.4948 181.96 17.1628 181.895 16.8633C181.855 16.681 181.816 16.5247 181.777 16.3945C181.738 16.2513 181.667 16.1146 181.562 15.9844C181.536 15.9323 181.478 15.8867 181.387 15.8477C181.309 15.8086 181.237 15.7891 181.172 15.7891C180.977 15.7891 180.794 15.8021 180.625 15.8281C180.456 15.8542 180.28 15.8932 180.098 15.9453C180.02 15.9714 179.941 15.9974 179.863 16.0234C179.785 16.0495 179.714 16.082 179.648 16.1211C179.518 16.5898 179.421 17.0391 179.355 17.4688C179.303 17.8854 179.251 18.3086 179.199 18.7383C179.16 19.0508 179.134 19.3698 179.121 19.6953C179.121 20.0078 179.108 20.3203 179.082 20.6328C179.069 20.9453 179.03 21.2578 178.965 21.5703C178.913 21.8828 178.815 22.1823 178.672 22.4688C178.555 22.6901 178.398 22.8138 178.203 22.8398C178.008 22.8789 177.826 22.8464 177.656 22.7422C177.5 22.651 177.376 22.5078 177.285 22.3125C177.207 22.1172 177.22 21.9089 177.324 21.6875C177.441 21.4531 177.507 21.1992 177.52 20.9258C177.533 20.6523 177.546 20.3854 177.559 20.125ZM185.703 27C185.99 27.2734 186.322 27.4622 186.699 27.5664C187.077 27.6836 187.454 27.7227 187.832 27.6836C188.21 27.6445 188.568 27.5339 188.906 27.3516C189.245 27.1693 189.525 26.9154 189.746 26.5898C190.215 25.9258 190.514 25.1901 190.645 24.3828C190.788 23.5885 190.846 22.7878 190.82 21.9805C190.195 22.0846 189.551 22.1042 188.887 22.0391C188.236 21.987 187.617 21.8503 187.031 21.6289C186.732 21.5117 186.445 21.375 186.172 21.2188C185.911 21.0495 185.703 20.8151 185.547 20.5156C185.273 20.0078 185.156 19.4479 185.195 18.8359C185.221 18.25 185.319 17.6836 185.488 17.1367C185.671 16.5768 185.872 16.0234 186.094 15.4766C186.211 15.2161 186.335 14.9427 186.465 14.6562C186.608 14.3568 186.79 14.0898 187.012 13.8555C187.233 13.6081 187.487 13.4193 187.773 13.2891C188.06 13.1589 188.366 13.0807 188.691 13.0547C188.639 12.8724 188.639 12.7031 188.691 12.5469C188.743 12.3776 188.854 12.2409 189.023 12.1367C189.193 12.0326 189.388 12.0065 189.609 12.0586C189.844 12.1107 190.007 12.2279 190.098 12.4102C190.15 12.5273 190.195 12.6445 190.234 12.7617C190.286 12.8789 190.332 12.9961 190.371 13.1133C190.632 13.8164 190.866 14.526 191.074 15.2422C191.296 15.9583 191.504 16.681 191.699 17.4102C191.934 18.2695 192.109 19.1419 192.227 20.0273C192.344 20.9128 192.389 21.8112 192.363 22.7227C192.35 23.2305 192.305 23.7513 192.227 24.2852C192.161 24.819 192.044 25.3333 191.875 25.8281C191.706 26.3229 191.484 26.7917 191.211 27.2344C190.938 27.6901 190.586 28.0807 190.156 28.4062C189.753 28.7188 189.303 28.9401 188.809 29.0703C188.327 29.2135 187.832 29.2721 187.324 29.2461C186.829 29.2201 186.341 29.1094 185.859 28.9141C185.391 28.7188 184.974 28.4453 184.609 28.0938C184.427 27.9245 184.349 27.7357 184.375 27.5273C184.401 27.332 184.486 27.1628 184.629 27.0195C184.759 26.8893 184.922 26.8112 185.117 26.7852C185.326 26.7591 185.521 26.8307 185.703 27ZM187.871 20.2617C188.327 20.3789 188.796 20.4635 189.277 20.5156C189.772 20.5547 190.247 20.5221 190.703 20.418C190.625 19.7539 190.508 19.1159 190.352 18.5039C190.208 17.8919 190.046 17.2734 189.863 16.6484C189.759 16.2839 189.648 15.9258 189.531 15.5742C189.427 15.2227 189.316 14.8711 189.199 14.5195C189.16 14.5456 189.115 14.5651 189.062 14.5781C189.01 14.5781 188.952 14.5846 188.887 14.5977C188.496 14.5977 188.197 14.7734 187.988 15.125C187.845 15.3464 187.728 15.5807 187.637 15.8281C187.611 15.8932 187.585 15.9583 187.559 16.0234C187.533 16.0755 187.507 16.1341 187.48 16.1992C187.285 16.668 187.116 17.1237 186.973 17.5664C186.842 17.9961 186.764 18.4193 186.738 18.8359V19.1875C186.751 19.2786 186.764 19.3503 186.777 19.4023C186.803 19.5195 186.816 19.5911 186.816 19.6172C186.829 19.6432 186.868 19.7083 186.934 19.8125C187.012 19.8776 187.083 19.9297 187.148 19.9688C187.214 20.0078 187.253 20.0339 187.266 20.0469C187.37 20.0859 187.467 20.125 187.559 20.1641C187.663 20.2031 187.767 20.2357 187.871 20.2617Z" fill="#292524"/>
</svg>
